# xmcd CD database file
#
# Track frame offsets:
#	182
#	15420
#	38402
#	57625
#	72270
#	83957
#	99130
#	125125
#	154085
#	170245
#	184960
#	196442
#	229292
#	277490
#	292117
#	302815
#	315997
#	329562
#
# Disc length: 4526 seconds
#
# Revision: 0
# Processed by: cddbd v1.5.2PL0 Copyright (c) Steve Scherf et al.
# Submitted via: CDex 1.70beta2
#
DISCID=1111ac12
DTITLE=Various Artist - Blue Note - Ahora Jazz 02
DYEAR=1900
DGENRE=Jazz
TTITLE0=Peggy Lee - Fever
TTITLE1=Amstrong and Ellington - Duke´s place
TTITLE2=Bud Powell - A night in Tunisia
TTITLE3=Benny Goodman - Stomping´at the Savoy
TTITLE4=June Christy - Hoe high the moon
TTITLE5=Dexter Gordon - Smile
TTITLE6=Sonny Rollins - Tune up
TTITLE7=Stanlery Jordan - The lady in my life
TTITLE8=Dinah Shore with Andrew Previn - My funny Valentine
TTITLE9=Ella Fitzgerald - Born to lose
TTITLE10=Stan Kenton - Lover
TTITLE11=The Horace Silver Quintet - Song for my father
TTITLE12=John Coltrane - Blue train
TTITLE13=Keely Smith - When your lover has gone
TTITLE14=The Buddy Rich Big Band - Chicago
TTITLE15=George Shearing - Laura
TTITLE16=Duke Ellington - Satin doll
TTITLE17=Nancy Wilson - Born to be blue
EXTD=
EXTT0=
EXTT1=
EXTT2=
EXTT3=
EXTT4=
EXTT5=
EXTT6=
EXTT7=
EXTT8=
EXTT9=
EXTT10=
EXTT11=
EXTT12=
EXTT13=
EXTT14=
EXTT15=
EXTT16=
EXTT17=
PLAYORDER=
